<svg xmlns="http://www.w3.org/2000/svg" viewBox="0 0 100 100" width="100" height="100">
  <path d="M42,54 L58,54 L56,86 L44,86 Z" fill="#C8B898"/>
  <path d="M5,52 C5,10 95,10 95,52 C72,58 28,58 5,52Z" fill="#C83228"/>
  <path d="M5,52 C28,58 72,58 95,52 C80,56 65,58 50,58 C35,58 20,56 5,52Z" fill="#7A1510"/>
  <path d="M29,22 C33,18 40,19 42,24 C44,29 41,34 36,34 C31,35 26,32 25,27 C24,22 25,25 29,22Z" fill="#EEE0C4"/>
  <path d="M68,23 C73,20 80,22 81,28 C83,34 79,39 73,39 C68,40 63,36 63,31 C62,26 63,27 68,23Z" fill="#EEE0C4"/>
  <path d="M14,39 C17,36 22,37 23,41 C24,45 21,48 18,48 C15,48 12,46 12,42 C12,40 13,41 14,39Z" fill="#EEE0C4"/>
  <path d="M58,40 C62,38 66,40 66,44 C66,47 63,50 59,49 C56,49 54,47 54,43 C54,41 56,41 58,40Z" fill="#EEE0C4"/>
  <path d="M52,28 C54,26 57,27 57,30 C57,32 55,34 53,34 C51,33 50,31 51,29 C51,28 52,28 52,28Z" fill="#EEE0C4"/>
</svg>
